{"title":"Deadfall 2012 DVDrip English Klam","uid":9916575,"size":1592109415,"categoryP":"video","categoryS":"movies","magnet":"?xt=urn:btih:ad463ab9b776ff02c1b59d6f7fcab7c18f50329a&amp;dn=Deadfall+2012+DVDrip+English+Klam&amp;tr=udp%3A%2F%2Ftracker.openbittorrent.com%3A80&amp;tr=udp%3A%2F%2Fopen.demonii.com%3A1337&amp;tr=udp%3A%2F%2Ftracker.coppersurfer.tk%3A6969&amp;tr=udp%3A%2F%2Fexodus.desync.com%3A6969","seeders":1,"leechers":2,"uploader":"Klambake","files":-1,"time":1396948590,"description":"With: Olivia Wilde, Charlie Hunnam and Eric Bana\n\nAddison (Eric Bana) en Liza (Olivia Wilde) zijn broer en zus. Ze zijn op de vlucht na een mislukte overval op een casino waarbij ze een rijksagent hebben gedood. Ondertussen is de voormalige bokser Jay (Charlie Hunnam) op weg naar zijn ouders, June en de gepensioneerde sheriff Chet, om Thanksgiving Day te vieren. Door een speling van het lot zullen hun wegen elkaar kruisen.\n\nA thriller that follows two siblings who decide to fend for themselves in the wake of a botched casino heist, and their unlikely reunion during another family's Thanksgiving celebration.\n &lt;a href=&quot;\nhttp://www.imdb.com/title/tt1667310&quot; rel=&quot;nofollow&quot; target=&quot;_NEW&quot;&gt;\nhttp://www.imdb.com/title/tt1667310&lt;/a&gt;\t\n\n--------------------- Dutch Friends 4ever ---------------------\n---------------------------------------------------------------\n- Bezoek ook eens mijn vrienden op: &lt;a href=&quot; http://www.Film-Test.nl&quot; rel=&quot;nofollow&quot; target=&quot;_NEW&quot;&gt; http://www.Film-Test.nl&lt;/a&gt; --\n----- voor mijn Nederlandse Sync. ondertitels ---- en meer ----\n------- http://www.Film-Test.nl ---- Over Films en meer -------\n---------------------------------------------------------------\n\nGeneral:\n\nComplete name                            : DeadfallDeadfall.avi\nFormat                                   : AVI\nFormat/Info                              : Audio Video Interleave\nFile size                                : 1.48 GiB\nDuration                                 : 1h 30mn\nOverall bit rate                         : 2 342 Kbps\n\nVideo:\n\nFormat                                   : MPEG-4 Visual\nFormat profile                           : Simple@L3\nFormat settings, BVOP                    : No\nFormat settings, QPel                    : No\nFormat settings, GMC                     : No warppoints\nFormat settings, Matrix                  : Default (H.263)\nCodec ID                                 : XVID\nCodec ID/Hint                            : XviD\nDuration                                 : 1h 30mn\nBit rate                                 : 1 883 Kbps\nWidth                                    : 720 pixels\nHeight                                   : 304 pixels\nDisplay aspect ratio                     : 2.35:1\nFrame rate                               : 25.000 fps\nColor space                              : YUV\nChroma subsampling                       : 4:2:0\nBit depth                                : 8 bits\nScan type                                : Progressive\nCompression mode                         : Lossy\nBits/(Pixel*Frame)                       : 0.344\nStream size                              : 1.19 GiB (80%)\nWriting library                          : XviD 1.1.2 (UTC 2006-11-01)\n\nAudio:\n\nFormat                                   : AC-3\nFormat/Info                              : Audio Coding 3\nMode extension                           : CM (complete main)\nFormat settings, Endianness              : Big\nCodec ID                                 : 2000\nDuration                                 : 1h 30mn\nSource duration                          : 1h 30mn\nBit rate mode                            : Constant\nBit rate                                 : 448 Kbps\nChannel(s)                               : 6 channels\nChannel positions                        : Front: L C R, Side: L R, LFE\nSampling rate                            : 48.0 KHz\nBit depth                                : 16 bits\nCompression mode                         : Lossy\nStream size                              : 290 MiB (19%)\nAlignment                                : Aligned on interleaves\nInterleave, duration                     : 32 ms (0.80 video frame)\nInterleave, preload duration             : 512 ms\n\n\n","torrent":{"xt":"urn:btih:ad463ab9b776ff02c1b59d6f7fcab7c18f50329a","amp;dn":"Deadfall+2012+DVDrip+English+Klam","amp;tr":["udp%3A%2F%2Ftracker.openbittorrent.com%3A80","udp%3A%2F%2Fopen.demonii.com%3A1337","udp%3A%2F%2Ftracker.coppersurfer.tk%3A6969","udp%3A%2F%2Fexodus.desync.com%3A6969"],"infoHash":"ad463ab9b776ff02c1b59d6f7fcab7c18f50329a","infoHashBuffer":{"type":"Buffer","data":[173,70,58,185,183,118,255,2,193,181,157,111,127,202,183,193,143,80,50,154]},"announce":[],"urlList":[]}}